<?xml version="1.0" encoding="utf-8"?>
<!DOCTYPE svg PUBLIC "-//W3C//DTD SVG 1.1//EN" "http://www.w3.org/Graphics/SVG/1.1/DTD/svg11.dtd">
<svg version="1.1" xmlns="http://www.w3.org/2000/svg" xmlns:xlink="http://www.w3.org/1999/xlink" x="0px" y="0px" width="198px"
	 height="322px" viewBox="0 0 198 322" style="enable-background:new 0 0 198 322;" xml:space="preserve">
<defs>
	<style type="text/css">
	<![CDATA[
		#backface{
			fill:#fff;
			/*stroke:#010101;stroke-width:0.09375;stroke-miterlimit:10.4299994;*/
		}
		#face-base{
			fill: #222; /*#222;*/
		}
		#eye-right {
			-webkit-transform-style:preserve-3d;
		}
	]]>
	</style>

<!--     <radialGradient id="face-color" x1="0%" y1="0%" x2="0%" y2="100%" gradientUnits="userSpaceOnUse">
        <stop offset="0%" style="stop-color:rgb(255,0,0);stop-opacity:1"/>
        <stop offset="100%" style="stop-color:rgb(255,255,0);stop-opacity:1"/>
    </radialGradient> -->
<!-- 
    <radialGradient id="face-color" gradientUnits="userSpaceOnUse" cx="50%" cy="50%" r="50%">
    	<stop stop-color="#FFFFFF" offset="0"/>
    	<stop stop-color="#FFFFFF" offset="0.7"/>
    	<stop stop-color="#000000" offset="0.8"/>
    	<stop stop-color="#000000" offset="1"/>
    </radialGradient> -->
<!-- 	<filter  id="AI_GaussianBlur_4">
		<feGaussianBlur stdDeviation="2"></feGaussianBlur>
	</filter>  filter="url(#AI_GaussianBlur_4)" -->
<!-- 		<filter id="innershadow" x0="-50%" y0="-50%" width="200%" height="200%">
			<feGaussianBlur in="SourceAlpha" result="blur" stddeviation="1"></feGaussianBlur>
			<feOffset dy="0" dx="0"></feOffset>
			<feComposite in2="SourceAlpha" operator="arithmetic" k2="-1" k3="1" result="shadowDiff"></feComposite>
			<feFlood flood-color="white" flood-opacity="0.6"></feFlood>
			<feComposite in2="shadowDiff" operator="in"></feComposite>
			<feComposite in2="SourceGraphic" operator="over"></feComposite>
		</filter> -->
</defs>
<g id="backface">
	<polygon points="20,74.5 25,59.5 32.5,49.5 58.75,34.5 85,28.25 118.75,28.25 151.25,39.5 170,59.5 180,90.75 
		181.25,193.25 156.25,275.75 101.25,305.75 51.25,287 23.75,212 	"/>
</g>
<g id="face-base">
<g id="face">
	<g>
		<g>
			<path d="M100.4775391,25.75c50,0,70,16.2504883,80.5,52.1499023
				c9.9375,33.9755859,6.3779297,64.0546875,4.5,94.1000977c-1.25,20-10,61.25-18.75,86.25
				c-5.2236328,14.9238281-18.75,43.75-38.75,48.75s-35,5-55,0s-33.5268555-33.8261719-38.75-48.75
				c-8.75-25-17.0859375-66.2802734-18.75-86.25c-2.5-30-5.7548828-59.8930664,1.25-93.75
				C24.2275391,42.0004883,50.4775391,25.75,100.4775391,25.75z M85.8359375,63.3847656
				C93.7280273,53.2700195,118.2949219,41.5791016,115.4775391,30.75
				C114.2041016,31.8198242,77.5458984,48.5664063,85.8359375,63.3847656z M67.9775391,58.25
				c5.5888672-2.4228516,26.5751953-20.2192383,27.5-26.25C89.0390625,32.0654297,83.9589844,34.3842773,82.5,34.5
				 M96.7392578,254.375c1.25,1.25,6.25,1.25,7.5,0c5-5,7.7597656-1.1796875,10-10
				c1.2382813-4.875-3.7617188-36.125-2.5117188-29.875c3.6679688,18.3408203,6.25,35,8.75,36.25c20,10,26.25,27.5,26.25,27.5
				s8.75-11.25,13.75-26.25s15-60,15-76.25c0-23.75,0.8525391-47.9760742-8.7402344-67.5
				c-2.1220703-7.9746094-9.15625-10.9667969-13.4287109-17.265625c-5.5556641-8.1923828-9.09375-2.9487305-19.9208984-3.0546875
				c2.0273438-3.8100586,4.2138672-7.5263672,6.5595703-11.1499023c-2.9570313,0.4370117-17.6123047,9.7890625-13.1298828-2.0498047
				c-3.4824219,2.6259766-7.2158203,4.8261719-11.2001953,6.6000977
				c0.7519531-10.1264648,5.3330078-19.4023438,6.2099609-29.5102539
				c-7.1347656,0.2270508-8.6708984,11.6420898-12.7294922,15.5600586c0.4101563-3.0654297,1.4238281-5.9150391,3.0400391-8.5498047
				c-9.1611328,0.3500977-5.9521484,16.1469727-12.5703125,20.1298828
				c-6.355957-18.8896484,11.6503906-26.3081055,24.7636719-32.8295898
				c5.0507813-2.5117188,14.5087891-8.246582,5.3271484-11.2304688
				c-9.5898438,7.8310547-42.3813477,18.4902344-37.9404297,43.5498047
				c-10.625-2.3930664-9.6572266-13.0366211-24.7402344-13.6196289c3.4619141,6.0410156,6.878418,12.1074219,10.25,18.199707
				c-4.5791016-0.5957031-35.4921875-1.6655273-34.1269531-5.5478516C41.543457,81.9106445,50.1850586,85.7695313,50.3276367,90
				c-10.7714844,0.2426758-17.1113281,2.8295898-20.2202148,13.7998047C25.8168945,112.9716797,25.4775391,152,25.4775391,175.75
				c0,16.25,10,61.25,15,76.25s13.75,26.25,13.75,26.25s6.25-17.5,26.25-27.5c2.5-1.25,4.9711914-16.1074219,8.75-35
				c1.25-6.25-3.75,23.75-2.5,28.75C88.9345703,253.328125,91.7392578,249.375,96.7392578,254.375z M124.4462891,60.2949219
				c8.7900391,1.7358398,11.0009766-9.1987305,17.6396484-12.0102539
				c4.3896484,4.2670898-4.9433594,17.4204102-5.1103516,22.3701172c4.3789063-3.9375,4.5107422-8.8598633,11.5507813-12.6499023
				c-3.5556641,5.2978516-2.2158203,8.1679688,4.0195313,8.6098633c-3.0107422,2.7822266-5.2070313,13.105957-6.5898438,16.9702148
				c6.6552734,0.0126953,5.2958984,5.3422852,11.9199219,5.9897461c1.8037109-8.0214844-5.3251953-38.671875-9.8984375-44.0400391
				c-10.2880859-10.2705078-18.9472656,8.8232422-25.1357422,5.0458984 M54.0756836,72.9248047
				c4.8935547,5.574707,10.1611328,6.3012695,17.1801758,6.6098633C65.6972656,71.887207,53.8081055,41.347168,41.7275391,47
				C49.449707,54.0830078,73.1459961,78.0029297,54.0756836,72.9248047z M34.9858398,52.9951172
				c0.9174805,6.7797852-9.0683594,2.5932617-6.8457031,9.6918945c0.934082,2.9829102,19.2456055,1.4980469,25.1357422,2.0678711
				L34.9858398,52.9951172z M41.0058594,66.9047852c-5.7978516,11.8969727-24.3686523-4.1879883-16.5498047,12.5
				C24.2636719,77.9887695,58.0009766,72.1489258,41.0058594,66.9047852 M160,75.75
				c19.3095703-0.4609375-0.578125,17.6914063,16.25,18.75c-4.2548828-8.3989258-5.7958984-30.3535156-12.2148438-32.5
				C162.5371094,65.7573242,161.3564453,71.8632813,160,75.75z M80.4775391,270.75c5,12.5,12.5,12.5,20,12.5s15,0,20-12.5
				c-1.1748047,3.0322266-10,5-20,5S81.0878906,272.3798828,80.4775391,270.75z"/>
		</g>
		<path d="M106.9082031,75.3647461c-0.9755859-2.8173828-0.3652344-3.8642578,1.8300781-3.1396484
			c0.7451172,10.0498047,0.5996094,20.2978516,3.3798828,30.0898438
			C106.2021484,93.8027344,105.2558594,79.4003906,106.9082031,75.3647461z"/>
		<path d="M81.2880859,85.4350586c5.0078125-1.0239258,5.527832,1.9589844,1.5600586,8.949707
			C77.480957,91.6777344,80.3876953,88.7260742,81.2880859,85.4350586
			C82.2148438,85.4150391,80.9980469,86.4951172,81.2880859,85.4350586z"/>
		<path d="M89.1484375,85.1948242c6.9794922,2.8842773,6.5209961,16.6191406,3.3598633,22.8500977
			C88.5991211,101.0273438,89.078125,87.2548828,89.1484375,85.1948242z"/>
		<path d="M118.6279297,94.324707c-4.1054688-1.0927734-3.546875,4.4858398-3.3994141-3.3095703
			C115.9882813,81.6914063,120.0673828,92.0449219,118.6279297,94.324707z"/>
	</g>
</g>
<g id="eyebrow-right">
	<path d="M142.9482422,145.0551758c12.8964844,0.2666016,25.1240234,1.3554688,30.1503906,14.8496094
		c-5.1269531,2.2182617-22.8701172,0.0053711-30.0410156,0.75c-11.6591797-0.0551758-20.0927734,4.0522461-31.9892578,7.2202148
		c0.6445313-6.762207,4.1035156-9.1953125-3.8105469-10.6401367
		C122.03125,155.6362305,129.4150391,148.4599609,142.9482422,145.0551758z"/>
</g>
<g id="eyebrow-left">
	<path d="M47.4296875,144.9848633c18.1640625,0.5380859,26.6396484,10.203125,45.8598633,12.2602539
		c-7.9663086,1.4541016-4.4238281,3.8203125-3.8598633,10.6298828c-9.5932617-2.6132813-15.3881836-5.1464844-26.034668-6.6665039
		c-4.2333984-1.3432617-14.3652344-3.25-19.3652344-2.6669922c-5.2275391,0.7700195-13.9628906,2.3608398-16.5297852,1.5737305
		C30.1494141,149.6274414,37.9765625,147.2290039,47.4296875,144.9848633z"/>
</g>
<g id="eye-right">
	<g>
		<path id="eye-right-path" d="M116.8837891,178.1523438 M116.8837891,178.1523438
			c0.9228516-4.96875,1.6279297-10.0039063,7.4189453-11.0332031c11.6855469-2.0771484,20.7978516-0.5917969,32.4306641,0.8066406
			c1.6484375,1.7539063,4.2929688,5.890625,6.0898438,8.5605469c-7.9511719,3.4082031-6.1640625,4.5976563-16.3964844,8.5742188
			c-2.6376953,0.9052734-6.0996094,3.8535156-19.0742188,3.7148438c-2.8710938-0.2558594-4.8564453,0.7539063-5.5615234,1.1542969
			c-0.7412109,0.4208984,2.1708984,1.5029297,3.1035156,1.7734375c1.9970703,0.5800781,2.609375,0.6865234,3,0.8027344
			c2.6025391,0.7744141,0.4267578,1.5361328-1.7392578,1.5361328c-9.4824219-2.9130859-0.6826172-0.0742188-7.2197266-2.2529297
			c-1.0722656-0.3574219-1.1777344-1.5214844-1.3398438-2.2441406c-0.2041016-0.9082031-0.0244141-1.859375,0.2949219-3.1640625
			l-0.7089844-5.0957031l2.1083984,2.2226563c14.9394531,3.8867188,34.2832031-6.4921875,36.5527344-8.1523438
			c-13.0507813-6.171875-26.3203125-8.0078125-37.9902344,2.7792969"/>
	</g>
</g>
<g id="eye-left">
	<g>
		<path id="eye-left-path" d="M81.5620117,178.1513672 M81.5932617,178.1347656
			c-11.6699219-10.7880859-31.4067383-6.0927734-37.9902344-2.7792969
			c13.1547852,9.6201172,21.6132813,12.0390625,36.5527344,8.1513672l1.1083984-2.2216797l0.2910156,5.0957031
			c0.5732422,2.34375,0.6972656,3.546875-1.0449219,5.4072266c-8.8237305,9.4208984-25.9902344,14.8369141-32.3671875,10.2167969
			c-0.5605469-0.984375-0.7900391-1.9628906,1.8730469-2.4941406c4.4902344-0.8955078,4.0527344,2.5478516,5.7470703,2.2285156
			c5.6318359-1.0595703,13.1582031-2.8720703,17.1733398-6.1142578c4.9428711-2.7929688,7.0415039-7.375,1.1567383-6.8496094
			C61.1181641,188.9140625,55.8530273,187.5,53.0195313,187.0595703
			c-10.6665039-2.7470703-11.4462891-8.1660156-19.3964844-11.5742188c1.796875-2.6699219,5.440918-5.8056641,7.0898438-7.5605469
			c12.9736328-2.5498047,22.7773438-1.6181641,34.4301758-0.8056641c5.8671875,0.4091797,5.4960938,6.0644531,6.4189453,11.0322266"
			/>
	</g>
</g>
</g>




<!-- TODO 
http://dev.opera.com/articles/view/advanced-svg-animation-techniques/
	(i)  Generate animate elements with JS that will probably reduce size
	(ii) Trigger mechanism (check if the window object is shared)
-->

<!-- DOUBLE BLINK -->
 <animate xlink:href="#eye-right-path"
    attributeName="d"
    attributeType="XML"
    calcMode="spline"
      values="M116.8837891,178.1523438 M116.8837891,178.1523438
			c0.9228516-4.96875,1.6279297-10.0039063,7.4189453-11.0332031c11.6855469-2.0771484,20.7978516-0.5917969,32.4306641,0.8066406
			c1.6484375,1.7539063,4.2929688,5.890625,6.0898438,8.5605469c-7.9511719,3.4082031-6.1640625,4.5976563-16.3964844,8.5742188
			c-2.6376953,0.9052734-6.0996094,3.8535156-19.0742188,3.7148438c-2.8710938-0.2558594-4.8564453,0.7539063-5.5615234,1.1542969
			c-0.7412109,0.4208984,2.1708984,1.5029297,3.1035156,1.7734375c1.9970703,0.5800781,2.609375,0.6865234,3,0.8027344
			c2.6025391,0.7744141,0.4267578,1.5361328-1.7392578,1.5361328c-9.4824219-2.9130859-0.6826172-0.0742188-7.2197266-2.2529297
			c-1.0722656-0.3574219-1.1777344-1.5214844-1.3398438-2.2441406c-0.2041016-0.9082031-0.0244141-1.859375,0.2949219-3.1640625
			l-0.7089844-5.0957031l2.1083984,2.2226563c14.9394531,3.8867188,34.2832031-6.4921875,36.5527344-8.1523438
			c-13.0507813-6.171875-26.3203125-8.0078125-37.9902344,2.7792969;
      		  M116.8837891,178.1523438 M116.8837891,178.1523438
			c0.9228516-4.96875,1.6279297-10.0039063,7.4189453-11.0332031c11.6855469-2.078125,20.7978516-0.5917969,32.4306641,0.8066406
			c1.6484375,1.7539063,4.2929688,5.890625,6.0898438,8.5605469c-7.9511719,3.4082031-6.1640625,4.5976563-16.3964844,8.5742188
			c-2.6376953,0.9042969-6.0996094,3.8535156-19.0742188,3.7148438c-2.8710938-0.2558594-4.8564453,0.7539063-5.5615234,1.1542969
			c-0.7412109,0.4199219,2.1708984,1.5019531,3.1035156,1.7734375c1.9970703,0.5800781,2.609375,0.6855469,3,0.8027344
			c2.6025391,0.7734375,0.4267578,1.5351563-1.7392578,1.5351563c-9.4824219-2.9121094-0.6826172-0.0742188-7.2197266-2.2519531
			c-1.0722656-0.3574219-1.1777344-1.5214844-1.3398438-2.2441406c-0.2041016-0.9082031-0.0244141-1.859375,0.2949219-3.1640625
			l-0.7089844-5.0957031l2.1083984,2.2226563C105.75,167.875,153.1015625,175.984375,155.8427734,175.3554688
			C140.5,178.875,135.0800781,185.0830078,117.8525391,178.1347656;
      		  M116.8837891,178.1523438 M116.8837891,178.1523438
			c0.9228516-4.96875,1.6279297-10.0039063,7.4189453-11.0332031c11.6855469-2.078125,20.7978516-0.5917969,32.4306641,0.8066406
			c1.6484375,1.7539063,4.2929688,5.890625,6.0898438,8.5605469c-7.9511719,3.4082031-6.1640625,4.5976563-16.3964844,8.5742188
			c-2.6376953,0.9042969-6.0996094,3.8535156-19.0742188,3.7148438c-2.8710938-0.2558594-4.8564453,0.7539063-5.5615234,1.1542969
			c-0.7412109,0.4199219,2.1708984,1.5019531,3.1035156,1.7734375c1.9970703,0.5800781,2.609375,0.6855469,3,0.8027344
			c2.6025391,0.7734375,0.4267578,1.5351563-1.7392578,1.5351563c-9.4824219-2.9121094-0.6826172-0.0742188-7.2197266-2.2519531
			c-1.0722656-0.3574219-1.1777344-1.5214844-1.3398438-2.2441406c-0.2041016-0.9082031-0.0244141-1.859375,0.2949219-3.1640625
			l-0.7089844-5.0957031l2.1083984,2.2226563C105.75,167.875,153.1015625,175.984375,155.8427734,175.3554688
			C140.5,178.875,135.0800781,185.0830078,117.8525391,178.1347656;
      		  M116.8837891,178.1523438 M116.8837891,178.1523438
			c0.9228516-4.96875,1.6279297-10.0039063,7.4189453-11.0332031c11.6855469-2.0771484,20.7978516-0.5917969,32.4306641,0.8066406
			c1.6484375,1.7539063,4.2929688,5.890625,6.0898438,8.5605469c-7.9511719,3.4082031-6.1640625,4.5976563-16.3964844,8.5742188
			c-2.6376953,0.9052734-6.0996094,3.8535156-19.0742188,3.7148438c-2.8710938-0.2558594-4.8564453,0.7539063-5.5615234,1.1542969
			c-0.7412109,0.4208984,2.1708984,1.5029297,3.1035156,1.7734375c1.9970703,0.5800781,2.609375,0.6865234,3,0.8027344
			c2.6025391,0.7744141,0.4267578,1.5361328-1.7392578,1.5361328c-9.4824219-2.9130859-0.6826172-0.0742188-7.2197266-2.2529297
			c-1.0722656-0.3574219-1.1777344-1.5214844-1.3398438-2.2441406c-0.2041016-0.9082031-0.0244141-1.859375,0.2949219-3.1640625
			l-0.7089844-5.0957031l2.1083984,2.2226563c14.9394531,3.8867188,34.2832031-6.4921875,36.5527344-8.1523438
			c-13.0507813-6.171875-26.3203125-8.0078125-37.9902344,2.7792969;
      		  M116.8837891,178.1523438 M116.8837891,178.1523438
			c0.9228516-4.96875,1.6279297-10.0039063,7.4189453-11.0332031c11.6855469-2.0771484,20.7978516-0.5917969,32.4306641,0.8066406
			c1.6484375,1.7539063,4.2929688,5.890625,6.0898438,8.5605469c-7.9511719,3.4082031-6.1640625,4.5976563-16.3964844,8.5742188
			c-2.6376953,0.9052734-6.0996094,3.8535156-19.0742188,3.7148438c-2.8710938-0.2558594-4.8564453,0.7539063-5.5615234,1.1542969
			c-0.7412109,0.4208984,2.1708984,1.5029297,3.1035156,1.7734375c1.9970703,0.5800781,2.609375,0.6865234,3,0.8027344
			c2.6025391,0.7744141,0.4267578,1.5361328-1.7392578,1.5361328c-9.4824219-2.9130859-0.6826172-0.0742188-7.2197266-2.2529297
			c-1.0722656-0.3574219-1.1777344-1.5214844-1.3398438-2.2441406c-0.2041016-0.9082031-0.0244141-1.859375,0.2949219-3.1640625
			l-0.7089844-5.0957031l2.1083984,2.2226563c14.9394531,3.8867188,34.2832031-6.4921875,36.5527344-8.1523438
			c-13.0507813-6.171875-26.3203125-8.0078125-37.9902344,2.7792969;
      		  M116.8837891,178.1523438 M116.8837891,178.1523438
			c0.9228516-4.96875,1.6279297-10.0039063,7.4189453-11.0332031c11.6855469-2.078125,20.7978516-0.5917969,32.4306641,0.8066406
			c1.6484375,1.7539063,4.2929688,5.890625,6.0898438,8.5605469c-7.9511719,3.4082031-6.1640625,4.5976563-16.3964844,8.5742188
			c-2.6376953,0.9042969-6.0996094,3.8535156-19.0742188,3.7148438c-2.8710938-0.2558594-4.8564453,0.7539063-5.5615234,1.1542969
			c-0.7412109,0.4199219,2.1708984,1.5019531,3.1035156,1.7734375c1.9970703,0.5800781,2.609375,0.6855469,3,0.8027344
			c2.6025391,0.7734375,0.4267578,1.5351563-1.7392578,1.5351563c-9.4824219-2.9121094-0.6826172-0.0742188-7.2197266-2.2519531
			c-1.0722656-0.3574219-1.1777344-1.5214844-1.3398438-2.2441406c-0.2041016-0.9082031-0.0244141-1.859375,0.2949219-3.1640625
			l-0.7089844-5.0957031l2.1083984,2.2226563C105.75,167.875,153.1015625,175.984375,155.8427734,175.3554688
			C140.5,178.875,135.0800781,185.0830078,117.8525391,178.1347656;
      		  M116.8837891,178.1523438 M116.8837891,178.1523438
			c0.9228516-4.96875,1.6279297-10.0039063,7.4189453-11.0332031c11.6855469-2.078125,20.7978516-0.5917969,32.4306641,0.8066406
			c1.6484375,1.7539063,4.2929688,5.890625,6.0898438,8.5605469c-7.9511719,3.4082031-6.1640625,4.5976563-16.3964844,8.5742188
			c-2.6376953,0.9042969-6.0996094,3.8535156-19.0742188,3.7148438c-2.8710938-0.2558594-4.8564453,0.7539063-5.5615234,1.1542969
			c-0.7412109,0.4199219,2.1708984,1.5019531,3.1035156,1.7734375c1.9970703,0.5800781,2.609375,0.6855469,3,0.8027344
			c2.6025391,0.7734375,0.4267578,1.5351563-1.7392578,1.5351563c-9.4824219-2.9121094-0.6826172-0.0742188-7.2197266-2.2519531
			c-1.0722656-0.3574219-1.1777344-1.5214844-1.3398438-2.2441406c-0.2041016-0.9082031-0.0244141-1.859375,0.2949219-3.1640625
			l-0.7089844-5.0957031l2.1083984,2.2226563C105.75,167.875,153.1015625,175.984375,155.8427734,175.3554688
			C140.5,178.875,135.0800781,185.0830078,117.8525391,178.1347656;
      		  M116.8837891,178.1523438 M116.8837891,178.1523438
			c0.9228516-4.96875,1.6279297-10.0039063,7.4189453-11.0332031c11.6855469-2.0771484,20.7978516-0.5917969,32.4306641,0.8066406
			c1.6484375,1.7539063,4.2929688,5.890625,6.0898438,8.5605469c-7.9511719,3.4082031-6.1640625,4.5976563-16.3964844,8.5742188
			c-2.6376953,0.9052734-6.0996094,3.8535156-19.0742188,3.7148438c-2.8710938-0.2558594-4.8564453,0.7539063-5.5615234,1.1542969
			c-0.7412109,0.4208984,2.1708984,1.5029297,3.1035156,1.7734375c1.9970703,0.5800781,2.609375,0.6865234,3,0.8027344
			c2.6025391,0.7744141,0.4267578,1.5361328-1.7392578,1.5361328c-9.4824219-2.9130859-0.6826172-0.0742188-7.2197266-2.2529297
			c-1.0722656-0.3574219-1.1777344-1.5214844-1.3398438-2.2441406c-0.2041016-0.9082031-0.0244141-1.859375,0.2949219-3.1640625
			l-0.7089844-5.0957031l2.1083984,2.2226563c14.9394531,3.8867188,34.2832031-6.4921875,36.5527344-8.1523438
			c-13.0507813-6.171875-26.3203125-8.0078125-37.9902344,2.7792969;
      		  M116.8837891,178.1523438 M116.8837891,178.1523438
			c0.9228516-4.96875,1.6279297-10.0039063,7.4189453-11.0332031c11.6855469-2.0771484,20.7978516-0.5917969,32.4306641,0.8066406
			c1.6484375,1.7539063,4.2929688,5.890625,6.0898438,8.5605469c-7.9511719,3.4082031-6.1640625,4.5976563-16.3964844,8.5742188
			c-2.6376953,0.9052734-6.0996094,3.8535156-19.0742188,3.7148438c-2.8710938-0.2558594-4.8564453,0.7539063-5.5615234,1.1542969
			c-0.7412109,0.4208984,2.1708984,1.5029297,3.1035156,1.7734375c1.9970703,0.5800781,2.609375,0.6865234,3,0.8027344
			c2.6025391,0.7744141,0.4267578,1.5361328-1.7392578,1.5361328c-9.4824219-2.9130859-0.6826172-0.0742188-7.2197266-2.2529297
			c-1.0722656-0.3574219-1.1777344-1.5214844-1.3398438-2.2441406c-0.2041016-0.9082031-0.0244141-1.859375,0.2949219-3.1640625
			l-0.7089844-5.0957031l2.1083984,2.2226563c14.9394531,3.8867188,34.2832031-6.4921875,36.5527344-8.1523438
			c-13.0507813-6.171875-26.3203125-8.0078125-37.9902344,2.7792969"
    dur="18s"
    keyTimes="0; .010; .019; .025; .35; .359; .365; .375; 1"
    keySplines="0 0.35 0.65 1; 0 1 1 1; 0 1 1 1; 0 1 1 1; 0 1 1 1; 0 1 1 1; 0 1 1 1; 0 1 1 1"
    fill="freeze"
    repeatCount="indefinite"
 />
<animate xlink:href="#eye-left-path"
    attributeName="d"
    attributeType="XML"
    calcMode="spline"
      values="M81.5620117,178.1513672 M81.5932617,178.1347656
			c-11.6699219-10.7880859-31.4067383-6.0927734-37.9902344-2.7792969
			c13.1547852,9.6201172,21.6132813,12.0390625,36.5527344,8.1513672l1.1083984-2.2216797l0.2910156,5.0957031
			c0.5732422,2.34375,0.6972656,3.546875-1.0449219,5.4072266c-8.8237305,9.4208984-25.9902344,14.8369141-32.3671875,10.2167969
			c-0.5605469-0.984375-0.7900391-1.9628906,1.8730469-2.4941406c4.4902344-0.8955078,4.0527344,2.5478516,5.7470703,2.2285156
			c5.6318359-1.0595703,13.1582031-2.8720703,17.1733398-6.1142578c4.9428711-2.7929688,7.0415039-7.375,1.1567383-6.8496094
			C61.1181641,188.9140625,55.8530273,187.5,53.0195313,187.0595703
			c-10.6665039-2.7470703-11.4462891-8.1660156-19.3964844-11.5742188c1.796875-2.6699219,5.440918-5.8056641,7.0898438-7.5605469
			c12.9736328-2.5498047,22.7773438-1.6181641,34.4301758-0.8056641c5.8671875,0.4091797,5.4960938,6.0644531,6.4189453,11.0322266;
			M81.5625,178.1513672 M81.59375,178.1347656
			c-14.0888672,8.0322266-31.2553711,0.6992188-37.9907227-2.7792969C58.421875,179.75,88.171875,166.2607422,80.15625,183.5068359
			l1.1074219-2.2216797l0.2910156,5.0957031c0.5742188,2.34375,0.6972656,3.546875-1.0449219,5.4072266
			c-8.8232422,9.4208984-25.9897461,14.8369141-32.3666992,10.2167969c-0.5605469-0.984375-0.7900391-1.9628906,1.8730469-2.4941406
			c4.4902344-0.8955078,4.0527344,2.5478516,5.7470703,2.2285156c5.6318359-1.0595703,13.1582031-2.8720703,17.1733398-6.1142578
			c4.9423828-2.7929688,7.0419922-7.375,1.1567383-6.8496094C61.1181641,188.9140625,55.8530273,187.5,53.0195313,187.0595703
			c-10.6665039-2.7470703-11.4462891-8.1660156-19.3964844-11.5742188c1.796875-2.6699219,5.440918-5.8056641,7.0898438-7.5605469
			c12.9736328-2.5498047,22.7773438-1.6181641,34.4301758-0.8056641c5.8666992,0.4091797,5.4956055,6.0644531,6.4194336,11.0322266;
			M81.5625,178.1513672 M81.59375,178.1347656
			c-14.0888672,8.0322266-31.2553711,0.6992188-37.9907227-2.7792969C58.421875,179.75,88.171875,166.2607422,80.15625,183.5068359
			l1.1074219-2.2216797l0.2910156,5.0957031c0.5742188,2.34375,0.6972656,3.546875-1.0449219,5.4072266
			c-8.8232422,9.4208984-25.9897461,14.8369141-32.3666992,10.2167969c-0.5605469-0.984375-0.7900391-1.9628906,1.8730469-2.4941406
			c4.4902344-0.8955078,4.0527344,2.5478516,5.7470703,2.2285156c5.6318359-1.0595703,13.1582031-2.8720703,17.1733398-6.1142578
			c4.9423828-2.7929688,7.0419922-7.375,1.1567383-6.8496094C61.1181641,188.9140625,55.8530273,187.5,53.0195313,187.0595703
			c-10.6665039-2.7470703-11.4462891-8.1660156-19.3964844-11.5742188c1.796875-2.6699219,5.440918-5.8056641,7.0898438-7.5605469
			c12.9736328-2.5498047,22.7773438-1.6181641,34.4301758-0.8056641c5.8666992,0.4091797,5.4956055,6.0644531,6.4194336,11.0322266;
			M81.5620117,178.1513672 M81.5932617,178.1347656
			c-11.6699219-10.7880859-31.4067383-6.0927734-37.9902344-2.7792969
			c13.1547852,9.6201172,21.6132813,12.0390625,36.5527344,8.1513672l1.1083984-2.2216797l0.2910156,5.0957031
			c0.5732422,2.34375,0.6972656,3.546875-1.0449219,5.4072266c-8.8237305,9.4208984-25.9902344,14.8369141-32.3671875,10.2167969
			c-0.5605469-0.984375-0.7900391-1.9628906,1.8730469-2.4941406c4.4902344-0.8955078,4.0527344,2.5478516,5.7470703,2.2285156
			c5.6318359-1.0595703,13.1582031-2.8720703,17.1733398-6.1142578c4.9428711-2.7929688,7.0415039-7.375,1.1567383-6.8496094
			C61.1181641,188.9140625,55.8530273,187.5,53.0195313,187.0595703
			c-10.6665039-2.7470703-11.4462891-8.1660156-19.3964844-11.5742188c1.796875-2.6699219,5.440918-5.8056641,7.0898438-7.5605469
			c12.9736328-2.5498047,22.7773438-1.6181641,34.4301758-0.8056641c5.8671875,0.4091797,5.4960938,6.0644531,6.4189453,11.0322266;
			M81.5620117,178.1513672 M81.5932617,178.1347656
			c-11.6699219-10.7880859-31.4067383-6.0927734-37.9902344-2.7792969
			c13.1547852,9.6201172,21.6132813,12.0390625,36.5527344,8.1513672l1.1083984-2.2216797l0.2910156,5.0957031
			c0.5732422,2.34375,0.6972656,3.546875-1.0449219,5.4072266c-8.8237305,9.4208984-25.9902344,14.8369141-32.3671875,10.2167969
			c-0.5605469-0.984375-0.7900391-1.9628906,1.8730469-2.4941406c4.4902344-0.8955078,4.0527344,2.5478516,5.7470703,2.2285156
			c5.6318359-1.0595703,13.1582031-2.8720703,17.1733398-6.1142578c4.9428711-2.7929688,7.0415039-7.375,1.1567383-6.8496094
			C61.1181641,188.9140625,55.8530273,187.5,53.0195313,187.0595703
			c-10.6665039-2.7470703-11.4462891-8.1660156-19.3964844-11.5742188c1.796875-2.6699219,5.440918-5.8056641,7.0898438-7.5605469
			c12.9736328-2.5498047,22.7773438-1.6181641,34.4301758-0.8056641c5.8671875,0.4091797,5.4960938,6.0644531,6.4189453,11.0322266
"
    dur="18s"
    keyTimes="0; .01; .019; .025; 1"
    keySplines="0 0.35 0.65 1; 0 1 1 1; 0 1 1 1; 0 1 1 1"
    fill="freeze"
    repeatCount="indefinite"
 />








</svg>
