<?xml version="1.0" encoding="UTF-8" standalone="no"?>
<!DOCTYPE svg PUBLIC "-//W3C//DTD SVG 1.1//EN" "http://www.w3.org/Graphics/SVG/1.1/DTD/svg11.dtd">
<svg
   xmlns:dc="http://purl.org/dc/elements/1.1/"
   xmlns:cc="http://creativecommons.org/ns#"
   xmlns:svg="http://www.w3.org/2000/svg"
   xmlns="http://www.w3.org/2000/svg"
   xmlns:xlink="http://www.w3.org/1999/xlink"
   version="1.1"
   viewBox="0 0 990 1610"
   class="face-img face-img-svg">
   <!-- width="990" height="1610" -->
  <defs>
    <radialGradient cx="0.5" cy="0.5" r="0.5" id="svg-grdnt" gradientUnits="userSpaceOnUse">
      <stop style="stop-color:#D5BE91;stop-opacity:1" offset="0" />
      <stop style="stop-color:#DECAA2;stop-opacity:1" offset="1" />
    </radialGradient>
    <style type="text/css">
    <![CDATA[
      #backface{
        fill: #fff;
      }
      #face-base {
        fill: url('#svg-grdnt');
      }
    ]]>
    </style>
  </defs>
  <g id="head" transform="matrix(5.5158535,0,0,5.5158535,-56.44837,-115.30146)">
  <g id="backface">
    <polygon
       points="151.25,39.5 170,59.5 180,90.75 181.25,193.25 156.25,275.75 101.25,305.75 51.25,287 23.75,212 20,74.5 25,59.5 32.5,49.5 58.75,34.5 85,28.25 118.75,28.25 " />
  </g>
  <g id="face-base">
    <g id="face">
      <g>
        <g>
          <path
             d="m 100.47754,25.75 c 50,0 70,16.250488 80.5,52.149902 9.9375,33.975588 6.37793,64.054688 4.5,94.100098 -1.25,20 -10,61.25 -18.75,86.25 -5.22363,14.92383 -18.75,43.75 -38.75,48.75 -20,5 -35.000001,5 -55.000001,0 -20,-5 -33.526855,-33.82617 -38.75,-48.75 -8.75,-25 -17.085937,-66.28027 -18.75,-86.25 -2.5,-30 -5.7548827,-59.89307 1.25,-93.75 7.5,-36.249512 33.75,-52.5 83.750001,-52.5 z M 85.835937,63.384766 C 93.728027,53.270019 118.29492,41.579102 115.47754,30.75 114.2041,31.819824 77.545898,48.566406 85.835937,63.384766 z M 67.977539,58.25 C 73.566406,55.827148 94.552734,38.030762 95.477539,32 89.039062,32.06543 83.958984,34.384277 82.5,34.5 m 14.239258,219.875 c 1.25,1.25 6.250002,1.25 7.500002,0 5,-5 7.75976,-1.17969 10,-10 1.23828,-4.875 -3.76172,-36.125 -2.51172,-29.875 3.66797,18.34082 6.25,35 8.75,36.25 20,10 26.25,27.5 26.25,27.5 0,0 8.75,-11.25 13.75,-26.25 5,-15 15,-60 15,-76.25 0,-23.75 0.85254,-47.97607 -8.74024,-67.5 -2.12207,-7.97461 -9.15625,-10.966797 -13.42871,-17.265625 -5.55566,-8.192383 -9.09375,-2.94873 -19.92089,-3.054688 2.02734,-3.810058 4.21386,-7.526367 6.55957,-11.149902 -2.95704,0.437012 -17.61231,9.789063 -13.12989,-2.049805 -3.48242,2.625977 -7.21582,4.826172 -11.20019,6.600098 0.75195,-10.126465 5.33301,-19.402344 6.20996,-29.510254 -7.13477,0.227051 -8.6709,11.64209 -12.72949,15.560059 0.41015,-3.06543 1.42382,-5.915039 3.04004,-8.549805 -9.16114,0.350098 -5.95215,16.146973 -12.570317,20.129883 -6.355957,-18.889648 11.650387,-26.308105 24.763667,-32.82959 5.05079,-2.511719 14.50879,-8.246582 5.32715,-11.230469 -9.58984,7.831055 -42.381345,18.490235 -37.940427,43.549805 -10.625,-2.393066 -9.657226,-13.036621 -24.740234,-13.619629 3.461914,6.041016 6.878418,12.107422 10.25,18.199707 C 72.648437,82.434082 41.735352,81.364258 43.100586,77.481934 41.543457,81.910645 50.185059,85.769531 50.327637,90 39.556152,90.242676 33.216309,92.82959 30.107422,103.7998 25.816894,112.97168 25.477539,152 25.477539,175.75 c 0,16.25 10,61.25 15,76.25 5,15 13.75,26.25 13.75,26.25 0,0 6.25,-17.5 26.25,-27.5 2.5,-1.25 4.971191,-16.10742 8.75,-35 1.25,-6.25 -3.75,23.75 -2.5,28.75 2.207031,8.82812 5.011719,4.875 10.011719,9.875 z M 124.44629,60.294922 c 8.79004,1.73584 11.00098,-9.198731 17.63965,-12.010254 4.38965,4.26709 -4.94336,17.42041 -5.11035,22.370117 4.3789,-3.9375 4.51074,-8.859863 11.55078,-12.649902 -3.55567,5.297851 -2.21582,8.167969 4.01953,8.609863 -3.01074,2.782227 -5.20703,13.105957 -6.58985,16.970215 6.65528,0.01269 5.2959,5.342285 11.91993,5.989746 1.80371,-8.021484 -5.3252,-38.671875 -9.89844,-44.040039 C 137.68945,35.26416 129.03027,54.35791 122.8418,50.580566 M 54.075684,72.924805 c 4.893554,5.574707 10.161132,6.301269 17.180175,6.609863 C 65.697266,71.887207 53.808106,41.347168 41.727539,47 49.449707,54.083008 73.145996,78.00293 54.075684,72.924805 z M 34.98584,52.995117 c 0.91748,6.779785 -9.06836,2.593262 -6.845703,9.691895 0.934082,2.98291 19.245605,1.498047 25.135742,2.067871 L 34.98584,52.995117 z m 6.020019,13.909668 c -5.797851,11.896973 -24.368652,-4.187988 -16.549804,12.5 -0.192383,-1.416015 33.544922,-7.255859 16.549804,-12.5 M 160,75.75 C 179.30957,75.289062 159.42187,93.441406 176.25,94.5 171.99512,86.101074 170.4541,64.146484 164.03516,62 162.53711,65.757324 161.35645,71.863281 160,75.75 z m -79.522461,195 c 5,12.5 12.5,12.5 20.000001,12.5 7.5,0 15,0 20,-12.5 -1.17481,3.03223 -10,5 -20,5 -10.000001,0 -19.389649,-3.37012 -20.000001,-5 z" />
        </g>
        <path
           d="m 106.9082,75.364746 c -0.97558,-2.817383 -0.36523,-3.864258 1.83008,-3.139648 0.74512,10.049804 0.59961,20.297851 3.37988,30.089842 -5.91601,-8.512206 -6.8623,-22.914549 -5.20996,-26.950194 z" />
        <path
           d="m 81.288086,85.435059 c 5.007812,-1.023926 5.527832,1.958984 1.560059,8.949707 -5.367188,-2.707032 -2.46045,-5.658692 -1.560059,-8.949707 0.926758,-0.02002 -0.290039,1.060058 0,0 z" />
        <path
           d="m 89.148437,85.194824 c 6.979493,2.884277 6.520997,16.619136 3.359864,22.850096 -3.90918,-7.01758 -3.430176,-20.790037 -3.359864,-22.850096 z" />
        <path
           d="m 118.62793,94.324707 c -4.10547,-1.092773 -3.54688,4.48584 -3.39941,-3.30957 0.75976,-9.323731 4.83886,1.029785 3.39941,3.30957 z" />
      </g>
    </g>
    <g id="eyebrow-right">
      <path
         d="m 142.94824,145.05518 c 12.89649,0.2666 25.12403,1.35546 30.15039,14.84961 -5.12695,2.21826 -22.87011,0.005 -30.04101,0.75 -11.65918,-0.0552 -20.09278,4.05224 -31.98926,7.22021 0.64453,-6.76221 4.10352,-9.19531 -3.81055,-10.64014 14.77344,-1.59863 22.15723,-8.7749 35.69043,-12.17968 z" />
    </g>
    <g id="eyebrow-left">
      <path
         d="m 47.429687,144.98486 c 18.164063,0.53809 26.639649,10.20313 45.859864,12.26026 -7.966309,1.4541 -4.423828,3.82031 -3.859864,10.62988 -9.593261,-2.61328 -15.388183,-5.14648 -26.034667,-6.6665 -4.233399,-1.34327 -14.365235,-3.25 -19.365235,-2.667 -5.227539,0.77002 -13.96289,2.36084 -16.529785,1.57373 2.649414,-10.48779 10.476562,-12.88623 19.929687,-15.13037 z" />
    </g>
    <g id="eye-right">
      <g>
        <path
           d="m 116.88379,178.15234 m 0,0 c 0.92285,-4.96875 1.62793,-10.0039 7.41894,-11.0332 11.68555,-2.07715 20.79786,-0.5918 32.43067,0.80664 1.64844,1.75391 4.29297,5.89063 6.08984,8.56055 -7.95117,3.4082 -6.16406,4.59765 -16.39648,8.57422 -2.6377,0.90527 -6.09961,3.85351 -19.07422,3.71484 -2.87109,-0.25586 -4.85645,0.75391 -5.56152,1.1543 -0.74122,0.4209 2.17089,1.50293 3.10351,1.77344 1.99707,0.58007 2.60938,0.68652 3,0.80273 2.60254,0.77441 0.42676,1.53613 -1.73926,1.53613 -9.48242,-2.91308 -0.68261,-0.0742 -7.21972,-2.25293 -1.07227,-0.35742 -1.17774,-1.52148 -1.33985,-2.24414 -0.2041,-0.9082 -0.0244,-1.85937 0.29493,-3.16406 l -0.70899,-5.0957 2.1084,2.22265 c 14.93945,3.88672 34.2832,-6.49218 36.55273,-8.15234 -13.05078,-6.17188 -26.32031,-8.00781 -37.99023,2.7793" id="eye-right-path" />
      </g>
    </g>
    <g id="eye-left">
      <g>
        <path
           d="m 81.562012,178.15137 m 0.03125,-0.0166 c -11.669922,-10.78809 -31.406739,-6.09278 -37.990235,-2.7793 13.154785,9.62012 21.613282,12.03906 36.552735,8.15137 l 1.108398,-2.22168 0.291016,5.0957 c 0.573242,2.34375 0.697265,3.54687 -1.044922,5.40723 -8.823731,9.42089 -25.990235,14.83691 -32.367188,10.21679 -0.560547,-0.98437 -0.790039,-1.96289 1.873047,-2.49414 4.490235,-0.89551 4.052735,2.54785 5.74707,2.22852 5.631836,-1.05957 13.158204,-2.87207 17.17334,-6.11426 4.942871,-2.79297 7.041504,-7.375 1.156739,-6.84961 C 61.118164,188.91406 55.853027,187.5 53.019531,187.05957 42.353027,184.3125 41.573242,178.89355 33.623047,175.48535 c 1.796875,-2.66992 5.440918,-5.80566 7.089844,-7.56055 12.973632,-2.5498 22.777343,-1.61816 34.430176,-0.80566 5.867187,0.40918 5.496093,6.06445 6.418945,11.03223" id="eye-left-path" />
      </g>
    </g>
  </g>
  </g>


<!-- TODO
http://dev.opera.com/articles/view/advanced-svg-animation-techniques/
  (i)  Generate animate elements with JS that will probably reduce size
  (ii) Trigger mechanism (check if the window object is shared)
-->


  <animate
     id="animate3405"
     repeatCount="indefinite"
     fill="freeze"
     keySplines="0 0.35 0.65 1; 0 1 1 1; 0 1 1 1; 0 1 1 1; 0 1 1 1; 0 1 1 1; 0 1 1 1; 0 1 1 1"
     keyTimes="0; .010; .019; .025; .35; .359; .365; .375; 1"
     dur="18s"
     values="M116.8837891,178.1523438 M116.8837891,178.1523438    c0.9228516-4.96875,1.6279297-10.0039063,7.4189453-11.0332031c11.6855469-2.0771484,20.7978516-0.5917969,32.4306641,0.8066406    c1.6484375,1.7539063,4.2929688,5.890625,6.0898438,8.5605469c-7.9511719,3.4082031-6.1640625,4.5976563-16.3964844,8.5742188    c-2.6376953,0.9052734-6.0996094,3.8535156-19.0742188,3.7148438c-2.8710938-0.2558594-4.8564453,0.7539063-5.5615234,1.1542969    c-0.7412109,0.4208984,2.1708984,1.5029297,3.1035156,1.7734375c1.9970703,0.5800781,2.609375,0.6865234,3,0.8027344    c2.6025391,0.7744141,0.4267578,1.5361328-1.7392578,1.5361328c-9.4824219-2.9130859-0.6826172-0.0742188-7.2197266-2.2529297    c-1.0722656-0.3574219-1.1777344-1.5214844-1.3398438-2.2441406c-0.2041016-0.9082031-0.0244141-1.859375,0.2949219-3.1640625    l-0.7089844-5.0957031l2.1083984,2.2226563c14.9394531,3.8867188,34.2832031-6.4921875,36.5527344-8.1523438    c-13.0507813-6.171875-26.3203125-8.0078125-37.9902344,2.7792969;           M116.8837891,178.1523438 M116.8837891,178.1523438    c0.9228516-4.96875,1.6279297-10.0039063,7.4189453-11.0332031c11.6855469-2.078125,20.7978516-0.5917969,32.4306641,0.8066406    c1.6484375,1.7539063,4.2929688,5.890625,6.0898438,8.5605469c-7.9511719,3.4082031-6.1640625,4.5976563-16.3964844,8.5742188    c-2.6376953,0.9042969-6.0996094,3.8535156-19.0742188,3.7148438c-2.8710938-0.2558594-4.8564453,0.7539063-5.5615234,1.1542969    c-0.7412109,0.4199219,2.1708984,1.5019531,3.1035156,1.7734375c1.9970703,0.5800781,2.609375,0.6855469,3,0.8027344    c2.6025391,0.7734375,0.4267578,1.5351563-1.7392578,1.5351563c-9.4824219-2.9121094-0.6826172-0.0742188-7.2197266-2.2519531    c-1.0722656-0.3574219-1.1777344-1.5214844-1.3398438-2.2441406c-0.2041016-0.9082031-0.0244141-1.859375,0.2949219-3.1640625    l-0.7089844-5.0957031l2.1083984,2.2226563C105.75,167.875,153.1015625,175.984375,155.8427734,175.3554688    C140.5,178.875,135.0800781,185.0830078,117.8525391,178.1347656;           M116.8837891,178.1523438 M116.8837891,178.1523438    c0.9228516-4.96875,1.6279297-10.0039063,7.4189453-11.0332031c11.6855469-2.078125,20.7978516-0.5917969,32.4306641,0.8066406    c1.6484375,1.7539063,4.2929688,5.890625,6.0898438,8.5605469c-7.9511719,3.4082031-6.1640625,4.5976563-16.3964844,8.5742188    c-2.6376953,0.9042969-6.0996094,3.8535156-19.0742188,3.7148438c-2.8710938-0.2558594-4.8564453,0.7539063-5.5615234,1.1542969    c-0.7412109,0.4199219,2.1708984,1.5019531,3.1035156,1.7734375c1.9970703,0.5800781,2.609375,0.6855469,3,0.8027344    c2.6025391,0.7734375,0.4267578,1.5351563-1.7392578,1.5351563c-9.4824219-2.9121094-0.6826172-0.0742188-7.2197266-2.2519531    c-1.0722656-0.3574219-1.1777344-1.5214844-1.3398438-2.2441406c-0.2041016-0.9082031-0.0244141-1.859375,0.2949219-3.1640625    l-0.7089844-5.0957031l2.1083984,2.2226563C105.75,167.875,153.1015625,175.984375,155.8427734,175.3554688    C140.5,178.875,135.0800781,185.0830078,117.8525391,178.1347656;           M116.8837891,178.1523438 M116.8837891,178.1523438    c0.9228516-4.96875,1.6279297-10.0039063,7.4189453-11.0332031c11.6855469-2.0771484,20.7978516-0.5917969,32.4306641,0.8066406    c1.6484375,1.7539063,4.2929688,5.890625,6.0898438,8.5605469c-7.9511719,3.4082031-6.1640625,4.5976563-16.3964844,8.5742188    c-2.6376953,0.9052734-6.0996094,3.8535156-19.0742188,3.7148438c-2.8710938-0.2558594-4.8564453,0.7539063-5.5615234,1.1542969    c-0.7412109,0.4208984,2.1708984,1.5029297,3.1035156,1.7734375c1.9970703,0.5800781,2.609375,0.6865234,3,0.8027344    c2.6025391,0.7744141,0.4267578,1.5361328-1.7392578,1.5361328c-9.4824219-2.9130859-0.6826172-0.0742188-7.2197266-2.2529297    c-1.0722656-0.3574219-1.1777344-1.5214844-1.3398438-2.2441406c-0.2041016-0.9082031-0.0244141-1.859375,0.2949219-3.1640625    l-0.7089844-5.0957031l2.1083984,2.2226563c14.9394531,3.8867188,34.2832031-6.4921875,36.5527344-8.1523438    c-13.0507813-6.171875-26.3203125-8.0078125-37.9902344,2.7792969;           M116.8837891,178.1523438 M116.8837891,178.1523438    c0.9228516-4.96875,1.6279297-10.0039063,7.4189453-11.0332031c11.6855469-2.0771484,20.7978516-0.5917969,32.4306641,0.8066406    c1.6484375,1.7539063,4.2929688,5.890625,6.0898438,8.5605469c-7.9511719,3.4082031-6.1640625,4.5976563-16.3964844,8.5742188    c-2.6376953,0.9052734-6.0996094,3.8535156-19.0742188,3.7148438c-2.8710938-0.2558594-4.8564453,0.7539063-5.5615234,1.1542969    c-0.7412109,0.4208984,2.1708984,1.5029297,3.1035156,1.7734375c1.9970703,0.5800781,2.609375,0.6865234,3,0.8027344    c2.6025391,0.7744141,0.4267578,1.5361328-1.7392578,1.5361328c-9.4824219-2.9130859-0.6826172-0.0742188-7.2197266-2.2529297    c-1.0722656-0.3574219-1.1777344-1.5214844-1.3398438-2.2441406c-0.2041016-0.9082031-0.0244141-1.859375,0.2949219-3.1640625    l-0.7089844-5.0957031l2.1083984,2.2226563c14.9394531,3.8867188,34.2832031-6.4921875,36.5527344-8.1523438    c-13.0507813-6.171875-26.3203125-8.0078125-37.9902344,2.7792969;           M116.8837891,178.1523438 M116.8837891,178.1523438    c0.9228516-4.96875,1.6279297-10.0039063,7.4189453-11.0332031c11.6855469-2.078125,20.7978516-0.5917969,32.4306641,0.8066406    c1.6484375,1.7539063,4.2929688,5.890625,6.0898438,8.5605469c-7.9511719,3.4082031-6.1640625,4.5976563-16.3964844,8.5742188    c-2.6376953,0.9042969-6.0996094,3.8535156-19.0742188,3.7148438c-2.8710938-0.2558594-4.8564453,0.7539063-5.5615234,1.1542969    c-0.7412109,0.4199219,2.1708984,1.5019531,3.1035156,1.7734375c1.9970703,0.5800781,2.609375,0.6855469,3,0.8027344    c2.6025391,0.7734375,0.4267578,1.5351563-1.7392578,1.5351563c-9.4824219-2.9121094-0.6826172-0.0742188-7.2197266-2.2519531    c-1.0722656-0.3574219-1.1777344-1.5214844-1.3398438-2.2441406c-0.2041016-0.9082031-0.0244141-1.859375,0.2949219-3.1640625    l-0.7089844-5.0957031l2.1083984,2.2226563C105.75,167.875,153.1015625,175.984375,155.8427734,175.3554688    C140.5,178.875,135.0800781,185.0830078,117.8525391,178.1347656;           M116.8837891,178.1523438 M116.8837891,178.1523438    c0.9228516-4.96875,1.6279297-10.0039063,7.4189453-11.0332031c11.6855469-2.078125,20.7978516-0.5917969,32.4306641,0.8066406    c1.6484375,1.7539063,4.2929688,5.890625,6.0898438,8.5605469c-7.9511719,3.4082031-6.1640625,4.5976563-16.3964844,8.5742188    c-2.6376953,0.9042969-6.0996094,3.8535156-19.0742188,3.7148438c-2.8710938-0.2558594-4.8564453,0.7539063-5.5615234,1.1542969    c-0.7412109,0.4199219,2.1708984,1.5019531,3.1035156,1.7734375c1.9970703,0.5800781,2.609375,0.6855469,3,0.8027344    c2.6025391,0.7734375,0.4267578,1.5351563-1.7392578,1.5351563c-9.4824219-2.9121094-0.6826172-0.0742188-7.2197266-2.2519531    c-1.0722656-0.3574219-1.1777344-1.5214844-1.3398438-2.2441406c-0.2041016-0.9082031-0.0244141-1.859375,0.2949219-3.1640625    l-0.7089844-5.0957031l2.1083984,2.2226563C105.75,167.875,153.1015625,175.984375,155.8427734,175.3554688    C140.5,178.875,135.0800781,185.0830078,117.8525391,178.1347656;           M116.8837891,178.1523438 M116.8837891,178.1523438    c0.9228516-4.96875,1.6279297-10.0039063,7.4189453-11.0332031c11.6855469-2.0771484,20.7978516-0.5917969,32.4306641,0.8066406    c1.6484375,1.7539063,4.2929688,5.890625,6.0898438,8.5605469c-7.9511719,3.4082031-6.1640625,4.5976563-16.3964844,8.5742188    c-2.6376953,0.9052734-6.0996094,3.8535156-19.0742188,3.7148438c-2.8710938-0.2558594-4.8564453,0.7539063-5.5615234,1.1542969    c-0.7412109,0.4208984,2.1708984,1.5029297,3.1035156,1.7734375c1.9970703,0.5800781,2.609375,0.6865234,3,0.8027344    c2.6025391,0.7744141,0.4267578,1.5361328-1.7392578,1.5361328c-9.4824219-2.9130859-0.6826172-0.0742188-7.2197266-2.2529297    c-1.0722656-0.3574219-1.1777344-1.5214844-1.3398438-2.2441406c-0.2041016-0.9082031-0.0244141-1.859375,0.2949219-3.1640625    l-0.7089844-5.0957031l2.1083984,2.2226563c14.9394531,3.8867188,34.2832031-6.4921875,36.5527344-8.1523438    c-13.0507813-6.171875-26.3203125-8.0078125-37.9902344,2.7792969;           M116.8837891,178.1523438 M116.8837891,178.1523438    c0.9228516-4.96875,1.6279297-10.0039063,7.4189453-11.0332031c11.6855469-2.0771484,20.7978516-0.5917969,32.4306641,0.8066406    c1.6484375,1.7539063,4.2929688,5.890625,6.0898438,8.5605469c-7.9511719,3.4082031-6.1640625,4.5976563-16.3964844,8.5742188    c-2.6376953,0.9052734-6.0996094,3.8535156-19.0742188,3.7148438c-2.8710938-0.2558594-4.8564453,0.7539063-5.5615234,1.1542969    c-0.7412109,0.4208984,2.1708984,1.5029297,3.1035156,1.7734375c1.9970703,0.5800781,2.609375,0.6865234,3,0.8027344    c2.6025391,0.7744141,0.4267578,1.5361328-1.7392578,1.5361328c-9.4824219-2.9130859-0.6826172-0.0742188-7.2197266-2.2529297    c-1.0722656-0.3574219-1.1777344-1.5214844-1.3398438-2.2441406c-0.2041016-0.9082031-0.0244141-1.859375,0.2949219-3.1640625    l-0.7089844-5.0957031l2.1083984,2.2226563c14.9394531,3.8867188,34.2832031-6.4921875,36.5527344-8.1523438    c-13.0507813-6.171875-26.3203125-8.0078125-37.9902344,2.7792969"
     calcMode="spline"
     attributeType="XML"
     attributeName="d"
     xlink:href="#eye-right-path" />
  <animate
     id="animate3407"
     repeatCount="indefinite"
     fill="freeze"
     keySplines="0 0.35 0.65 1; 0 1 1 1; 0 1 1 1; 0 1 1 1"
     keyTimes="0; .01; .019; .025; 1"
     dur="18s"
     values="M81.5620117,178.1513672 M81.5932617,178.1347656    c-11.6699219-10.7880859-31.4067383-6.0927734-37.9902344-2.7792969    c13.1547852,9.6201172,21.6132813,12.0390625,36.5527344,8.1513672l1.1083984-2.2216797l0.2910156,5.0957031    c0.5732422,2.34375,0.6972656,3.546875-1.0449219,5.4072266c-8.8237305,9.4208984-25.9902344,14.8369141-32.3671875,10.2167969    c-0.5605469-0.984375-0.7900391-1.9628906,1.8730469-2.4941406c4.4902344-0.8955078,4.0527344,2.5478516,5.7470703,2.2285156    c5.6318359-1.0595703,13.1582031-2.8720703,17.1733398-6.1142578c4.9428711-2.7929688,7.0415039-7.375,1.1567383-6.8496094    C61.1181641,188.9140625,55.8530273,187.5,53.0195313,187.0595703    c-10.6665039-2.7470703-11.4462891-8.1660156-19.3964844-11.5742188c1.796875-2.6699219,5.440918-5.8056641,7.0898438-7.5605469    c12.9736328-2.5498047,22.7773438-1.6181641,34.4301758-0.8056641c5.8671875,0.4091797,5.4960938,6.0644531,6.4189453,11.0322266;    M81.5625,178.1513672 M81.59375,178.1347656    c-14.0888672,8.0322266-31.2553711,0.6992188-37.9907227-2.7792969C58.421875,179.75,88.171875,166.2607422,80.15625,183.5068359    l1.1074219-2.2216797l0.2910156,5.0957031c0.5742188,2.34375,0.6972656,3.546875-1.0449219,5.4072266    c-8.8232422,9.4208984-25.9897461,14.8369141-32.3666992,10.2167969c-0.5605469-0.984375-0.7900391-1.9628906,1.8730469-2.4941406    c4.4902344-0.8955078,4.0527344,2.5478516,5.7470703,2.2285156c5.6318359-1.0595703,13.1582031-2.8720703,17.1733398-6.1142578    c4.9423828-2.7929688,7.0419922-7.375,1.1567383-6.8496094C61.1181641,188.9140625,55.8530273,187.5,53.0195313,187.0595703    c-10.6665039-2.7470703-11.4462891-8.1660156-19.3964844-11.5742188c1.796875-2.6699219,5.440918-5.8056641,7.0898438-7.5605469    c12.9736328-2.5498047,22.7773438-1.6181641,34.4301758-0.8056641c5.8666992,0.4091797,5.4956055,6.0644531,6.4194336,11.0322266;    M81.5625,178.1513672 M81.59375,178.1347656    c-14.0888672,8.0322266-31.2553711,0.6992188-37.9907227-2.7792969C58.421875,179.75,88.171875,166.2607422,80.15625,183.5068359    l1.1074219-2.2216797l0.2910156,5.0957031c0.5742188,2.34375,0.6972656,3.546875-1.0449219,5.4072266    c-8.8232422,9.4208984-25.9897461,14.8369141-32.3666992,10.2167969c-0.5605469-0.984375-0.7900391-1.9628906,1.8730469-2.4941406    c4.4902344-0.8955078,4.0527344,2.5478516,5.7470703,2.2285156c5.6318359-1.0595703,13.1582031-2.8720703,17.1733398-6.1142578    c4.9423828-2.7929688,7.0419922-7.375,1.1567383-6.8496094C61.1181641,188.9140625,55.8530273,187.5,53.0195313,187.0595703    c-10.6665039-2.7470703-11.4462891-8.1660156-19.3964844-11.5742188c1.796875-2.6699219,5.440918-5.8056641,7.0898438-7.5605469    c12.9736328-2.5498047,22.7773438-1.6181641,34.4301758-0.8056641c5.8666992,0.4091797,5.4956055,6.0644531,6.4194336,11.0322266;    M81.5620117,178.1513672 M81.5932617,178.1347656    c-11.6699219-10.7880859-31.4067383-6.0927734-37.9902344-2.7792969    c13.1547852,9.6201172,21.6132813,12.0390625,36.5527344,8.1513672l1.1083984-2.2216797l0.2910156,5.0957031    c0.5732422,2.34375,0.6972656,3.546875-1.0449219,5.4072266c-8.8237305,9.4208984-25.9902344,14.8369141-32.3671875,10.2167969    c-0.5605469-0.984375-0.7900391-1.9628906,1.8730469-2.4941406c4.4902344-0.8955078,4.0527344,2.5478516,5.7470703,2.2285156    c5.6318359-1.0595703,13.1582031-2.8720703,17.1733398-6.1142578c4.9428711-2.7929688,7.0415039-7.375,1.1567383-6.8496094    C61.1181641,188.9140625,55.8530273,187.5,53.0195313,187.0595703    c-10.6665039-2.7470703-11.4462891-8.1660156-19.3964844-11.5742188c1.796875-2.6699219,5.440918-5.8056641,7.0898438-7.5605469    c12.9736328-2.5498047,22.7773438-1.6181641,34.4301758-0.8056641c5.8671875,0.4091797,5.4960938,6.0644531,6.4189453,11.0322266;    M81.5620117,178.1513672 M81.5932617,178.1347656    c-11.6699219-10.7880859-31.4067383-6.0927734-37.9902344-2.7792969    c13.1547852,9.6201172,21.6132813,12.0390625,36.5527344,8.1513672l1.1083984-2.2216797l0.2910156,5.0957031    c0.5732422,2.34375,0.6972656,3.546875-1.0449219,5.4072266c-8.8237305,9.4208984-25.9902344,14.8369141-32.3671875,10.2167969    c-0.5605469-0.984375-0.7900391-1.9628906,1.8730469-2.4941406c4.4902344-0.8955078,4.0527344,2.5478516,5.7470703,2.2285156    c5.6318359-1.0595703,13.1582031-2.8720703,17.1733398-6.1142578c4.9428711-2.7929688,7.0415039-7.375,1.1567383-6.8496094    C61.1181641,188.9140625,55.8530273,187.5,53.0195313,187.0595703    c-10.6665039-2.7470703-11.4462891-8.1660156-19.3964844-11.5742188c1.796875-2.6699219,5.440918-5.8056641,7.0898438-7.5605469    c12.9736328-2.5498047,22.7773438-1.6181641,34.4301758-0.8056641c5.8671875,0.4091797,5.4960938,6.0644531,6.4189453,11.0322266 "
     calcMode="spline"
     attributeType="XML"
     attributeName="d"
     xlink:href="#eye-left-path" />
</svg>
